<?xml version="1.0" encoding="utf-8"?>
<!-- Generator: Adobe Illustrator 23.0.2, SVG Export Plug-In . SVG Version: 6.00 Build 0)  -->
<svg version="1.1" id="Capa_1" xmlns="http://www.w3.org/2000/svg" xmlns:xlink="http://www.w3.org/1999/xlink" x="0px" y="0px"
	 viewBox="0 0 482.4 482.4" style="enable-background:new 0 0 482.4 482.4;" xml:space="preserve">
<style type="text/css">
	.st0{fill:#842029;}
</style>
<g>
	<g>
		<path class="st0" d="M381.2,57.8h-75.1C302.3,25.3,274.7,0,241.2,0c-33.5,0-61.1,25.3-64.8,57.8h-75.1
			c-30.4,0-55.1,24.7-55.1,55.1v2.8c0,23.2,14.5,43.1,34.8,51.2v260.4c0,30.4,24.7,55.1,55.1,55.1h210.2c30.4,0,55.1-24.7,55.1-55.1
			V166.9c20.4-8.1,34.8-28,34.8-51.2v-2.8C436.3,82.5,411.6,57.8,381.2,57.8z M241.2,26.1c19,0,34.9,13.6,38.4,31.7h-76.9
			C206.3,39.8,222.2,26.1,241.2,26.1z M375.3,427.3c0,16-13,29-29,29H136.1c-16,0-29-13-29-29V170.9h268.2V427.3z M410.1,115.7
			c0,16-13,29-29,29H101.3c-16,0-29-13-29-29v-2.8c0-16,13-29,29-29h279.9c16,0,29,13,29,29L410.1,115.7L410.1,115.7z"/>
		<path class="st0" d="M171.1,422.9c7.2,0,13.1-5.9,13.1-13.1V262.6c0-7.2-5.9-13.1-13.1-13.1s-13.1,5.9-13.1,13.1v147.2
			C158.1,417,163.9,422.9,171.1,422.9z"/>
		<path class="st0" d="M241.2,422.9c7.2,0,13.1-5.9,13.1-13.1V262.6c0-7.2-5.9-13.1-13.1-13.1c-7.2,0-13.1,5.9-13.1,13.1v147.2
			C228.1,417,234,422.9,241.2,422.9z"/>
		<path class="st0" d="M311.3,422.9c7.2,0,13.1-5.9,13.1-13.1V262.6c0-7.2-5.9-13.1-13.1-13.1c-7.2,0-13.1,5.9-13.1,13.1v147.2
			C298.2,417,304.1,422.9,311.3,422.9z"/>
	</g>
</g>
</svg>
