<?xml version="1.0" encoding="utf-8"?>
<!-- Generator: Adobe Illustrator 23.0.2, SVG Export Plug-In . SVG Version: 6.00 Build 0)  -->
<svg version="1.1" id="Capa_1" xmlns="http://www.w3.org/2000/svg" xmlns:xlink="http://www.w3.org/1999/xlink" x="0px" y="0px"
	 viewBox="0 0 60 60" style="enable-background:new 0 0 60 60;" xml:space="preserve">
<style type="text/css">
	.st0{fill:#0F5132;}
</style>
<path class="st0" d="M60,7c0-1.9-0.7-3.6-2-4.9S54.9,0,53,0s-3.6,0.7-5,2.1l-1.4,1.4l-4.2,4.2l0,0L4.5,45.6
	c-0.1,0.1-0.2,0.2-0.2,0.4L0.1,58.7c-0.1,0.4,0,0.8,0.2,1C0.5,59.9,0.7,60,1,60c0.1,0,0.2,0,0.3-0.1L14,55.7c0.1,0,0.3-0.1,0.4-0.2
	l37.8-37.8l0,0l4.2-4.2l0,0l1.4-1.4C59.3,10.6,60,8.9,60,7z M52.3,14.8l-7.1-7.1l1.4-1.4l7.1,7.1L52.3,14.8z M5.7,48.1l6.2,6.2
	l-9.3,3.1L5.7,48.1z M13.7,53.3l-7.1-7.1L43.8,9.1l7.1,7.1L13.7,53.3z M55.1,11.9L48,4.9l1.4-1.4C50.4,2.5,51.7,2,53,2
	s2.6,0.5,3.5,1.5S58,5.7,58,7s-0.5,2.6-1.5,3.5L55.1,11.9z"/>
</svg>
