<?xml version="1.0" encoding="utf-8"?>
<!-- Generator: Adobe Illustrator 23.0.2, SVG Export Plug-In . SVG Version: 6.00 Build 0)  -->
<svg version="1.1" id="Layer_1" xmlns="http://www.w3.org/2000/svg" xmlns:xlink="http://www.w3.org/1999/xlink" x="0px" y="0px"
	 viewBox="0 0 329 80" style="enable-background:new 0 0 329 80;" xml:space="preserve">
<style type="text/css">
	.st0{clip-path:url(#SVGID_2_);fill:#FFFFFF;}
</style>
<g>
	<g>
		<defs>
			<rect id="SVGID_1_" width="328.8" height="80"/>
		</defs>
		<clipPath id="SVGID_2_">
			<use xlink:href="#SVGID_1_"  style="overflow:visible;"/>
		</clipPath>
		<path class="st0" d="M72.9,37.8h10.3v1.3h-2.3h-0.1c-0.3,0-0.4,0.1-0.6,0.3c-0.2,0.2-0.2,0.4-0.2,0.7v16.5c0,2.6,0.7,4.7,2.2,6.2
			c1.5,1.5,3.5,2.2,6.1,2.2c1.5,0,2.8-0.4,4.1-1.1c1.2-0.7,2.2-1.7,2.8-3c0.7-1.3,1-2.7,1-4.3V40.1c0-0.3-0.1-0.5-0.2-0.8
			c-0.2-0.2-0.4-0.3-0.6-0.2h-2.3v-1.3h7.6v1.3h-1.9h-0.1c-0.3,0-0.4,0.1-0.6,0.3C98,39.6,98,39.8,98,40.1v17c0,1.8-0.4,3.4-1.4,4.8
			c-0.9,1.4-2.1,2.5-3.7,3.3c-1.6,0.8-3.4,1.2-5.4,1.2c-3.8,0-6.8-0.8-8.8-2.5c-2-1.7-3.1-4.1-3.1-7.3V40.1c0-0.3-0.1-0.5-0.3-0.7
			c-0.2-0.2-0.4-0.3-0.7-0.3h-1.8V37.8z"/>
		<path class="st0" d="M105,56.4c0.7,5.8,3.6,8.7,8.7,8.7c1.6,0,2.8-0.5,3.7-1.5c0.9-1,1.4-2.4,1.4-4.1c0-1.2-0.4-2.3-1.3-3.2
			c-0.8-0.9-2-1.7-3.4-2.2l-4.8-1.9c-1.7-0.7-3-1.6-3.9-2.8c-0.9-1.2-1.3-2.5-1.3-4.1c0-1.4,0.3-2.7,1-3.9c0.7-1.2,1.6-2.1,3-2.8
			c1.3-0.7,2.9-1,4.8-1c1,0,1.9,0.1,2.6,0.3c0.7,0.2,1.4,0.4,2.1,0.6c0.7,0.2,1.1,0.4,1.4,0.5c0.5,0.2,0.9,0.3,1.3,0.3
			c0.5,0,1-0.1,1.4-0.2v6.6h-1.1c0-2-0.7-3.7-2-5c-1.3-1.3-3-1.9-5-1.9c-1.6,0-3,0.4-3.9,1.4c-1,0.9-1.5,2.1-1.5,3.7
			c0,1,0.4,2,1.1,2.8c0.7,0.8,1.7,1.5,3,2l4.3,1.8c2.4,1,4.1,2,5.1,3.2c1,1.2,1.5,2.7,1.5,4.5c0,1.6-0.4,3.1-1.2,4.4
			c-0.8,1.3-1.9,2.2-3.2,3c-1.4,0.7-2.8,1-4.4,1c-1,0-1.8-0.1-2.5-0.1c-0.7-0.1-1.5-0.2-2.3-0.5c-1.6-0.5-2.9-0.7-3.7-0.7
			c-0.3,0-0.6,0.1-0.9,0.1c-0.3,0.1-0.5,0.1-0.7,0.2v-8.9L105,56.4L105,56.4z"/>
		<path class="st0" d="M154.1,64.7V66h-12.5v-1.3h2.3c0.9,0.1,1.4-0.3,1.4-1.2c0-0.5-0.2-1.2-0.5-1.9l-2.3-5.6h-11l-2.2,5.3
			c-0.4,1-0.7,1.8-0.7,2.4c0,0.7,0.3,0.9,1,0.9h2.2v1.3h-8.2v-1.3h1.4c0.6,0,1.2-0.3,1.5-0.9c0.5-0.7,0.9-1.6,1.4-2.7l9.9-23.7h1.2
			l10,23.8c0.4,1.2,0.9,2,1.4,2.7c0.4,0.5,1,0.8,1.6,0.8h1.8V64.7z M132.1,54.8h9.9L137,43L132.1,54.8z"/>
		<path class="st0" d="M195.5,64.7V66h-10.4v-1.3h2.3c0.6,0,0.9-0.3,0.9-1V41.5l-10.4,23.2h-2.7l-11.3-23.6v22.5c0,0.7,0.3,1,0.9,1
			h2.3v1.3h-7.6v-1.3h1.9c0.6,0,0.9-0.3,0.9-1V39.4c0-0.2-0.2-0.3-0.5-0.3h-2v-1.3h7.3l11,22.8l10.4-22.8h6.8v1.3h-1.6h-0.1
			c-0.3,0-0.4,0.1-0.6,0.3c-0.2,0.2-0.2,0.4-0.2,0.7v23.6c0,0.7,0.3,1,0.9,1L195.5,64.7L195.5,64.7z"/>
		<path class="st0" d="M217.9,64.7V66h-6.4v-3.6c-0.7,1.4-1.6,2.3-2.7,2.9c-1.1,0.6-2.4,0.9-3.9,0.9c-2,0-3.5-0.4-4.5-1.4
			c-1-0.9-1.5-2.2-1.5-4c0-2.4,1-4.2,3-5.4c2-1.2,5.2-1.7,9.5-1.7V51c0-1.5-0.3-2.5-1-3.2c-0.7-0.6-1.8-0.9-3.3-0.9
			c-2.4,0-3.6,0.7-3.6,2c0,0.3,0.1,0.5,0.2,0.9c0.2,0.3,0.2,0.7,0.2,0.9c0,0.5-0.2,0.9-0.5,1.2c-0.3,0.3-0.8,0.4-1.3,0.4
			c-0.7,0-1.2-0.2-1.5-0.6c-0.4-0.4-0.5-0.9-0.5-1.6c0-1.3,0.7-2.4,2.1-3.2c1.4-0.8,3.2-1.2,5.6-1.2c5.3,0,7.9,2.2,7.9,6.6v11.6
			c0,0.6,0.2,0.8,0.6,0.8L217.9,64.7L217.9,64.7z M209.9,62.8c1-1.2,1.5-2.6,1.6-4.4v-3.2c-3,0-5.1,0.4-6.4,1.3
			c-1.3,0.9-1.9,2.2-1.9,4.1c0,1.3,0.3,2.3,0.8,3c0.5,0.7,1.3,1,2.4,1C207.7,64.5,208.9,63.9,209.9,62.8z"/>
		<path class="st0" d="M286.9,64.7V66h-6.4v-3.6c-0.7,1.4-1.6,2.3-2.7,2.9c-1.1,0.6-2.4,0.9-3.9,0.9c-2,0-3.5-0.4-4.5-1.4
			c-1-0.9-1.5-2.2-1.5-4c0-2.4,1-4.2,3-5.4c2-1.2,5.2-1.7,9.5-1.7V51c0-1.5-0.3-2.5-1-3.2c-0.7-0.6-1.8-0.9-3.3-0.9
			c-2.4,0-3.6,0.7-3.6,2c0,0.3,0.1,0.5,0.2,0.9c0.2,0.3,0.2,0.7,0.2,0.9c0,0.5-0.2,0.9-0.5,1.2c-0.3,0.3-0.8,0.4-1.3,0.4
			c-0.7,0-1.2-0.2-1.5-0.6c-0.4-0.4-0.5-0.9-0.5-1.6c0-1.3,0.7-2.4,2.1-3.2c1.4-0.8,3.2-1.2,5.6-1.2c5.3,0,7.9,2.2,7.9,6.6v11.6
			c0,0.6,0.2,0.8,0.6,0.8L286.9,64.7L286.9,64.7z M278.9,62.8c1-1.2,1.5-2.6,1.6-4.4v-3.2c-3,0-5.1,0.4-6.4,1.3
			c-1.3,0.9-1.9,2.2-1.9,4.1c0,1.3,0.3,2.3,0.8,3c0.5,0.7,1.3,1,2.4,1C276.7,64.5,277.9,63.9,278.9,62.8z"/>
		<path class="st0" d="M235.1,46.7c0.7,0.7,1,1.6,1,2.6c0,0.7-0.2,1.3-0.5,1.6c-0.4,0.4-0.8,0.5-1.4,0.5c-0.4,0-0.8-0.1-1.2-0.3
			c-0.4-0.2-0.5-0.6-0.5-1.1c0-0.3,0.1-0.7,0.2-1.1c0.1-0.4,0.2-0.8,0.2-1c0-0.3-0.1-0.5-0.3-0.7c-0.2-0.2-0.4-0.3-0.8-0.3
			c-1,0-1.8,0.4-2.5,1.4c-0.7,0.9-1.3,2.1-1.7,3.5c-0.4,1.4-0.7,2.7-0.7,3.9v8.2c0,0.6,0.2,0.8,0.6,0.8h2.9V66h-9.6v-1.3h1.5
			c0.4,0,0.6-0.2,0.6-0.8V48.2c0-0.6-0.2-0.9-0.6-0.9h-1.7v-1.2h6.4v4.5c0.7-1.8,1.5-3,2.4-3.8c0.9-0.8,1.9-1.2,3.1-1.2
			C233.5,45.7,234.5,46,235.1,46.7z"/>
		<path class="st0" d="M253.1,46.7c0.7,0.7,1,1.6,1,2.6c0,0.7-0.2,1.3-0.5,1.6c-0.4,0.4-0.8,0.5-1.4,0.5c-0.4,0-0.8-0.1-1.2-0.3
			c-0.4-0.2-0.5-0.6-0.5-1.1c0-0.3,0.1-0.7,0.2-1.1c0.1-0.4,0.2-0.8,0.2-1c0-0.3-0.1-0.5-0.3-0.7c-0.2-0.2-0.4-0.3-0.8-0.3
			c-1,0-1.8,0.4-2.5,1.4c-0.7,0.9-1.3,2.1-1.7,3.5c-0.4,1.4-0.7,2.7-0.7,3.9v8.2c0,0.6,0.2,0.8,0.6,0.8h2.9V66h-9.6v-1.3h1.5
			c0.4,0,0.6-0.2,0.6-0.8V48.2c0-0.6-0.2-0.9-0.6-0.9h-1.8v-1.2h6.4v4.5c0.7-1.8,1.5-3,2.4-3.8c0.9-0.8,1.9-1.2,3.1-1.2
			C251.5,45.7,252.4,46,253.1,46.7z"/>
		<path class="st0" d="M262.7,63.9c0,0.6,0.2,0.9,0.6,0.9l1.7-0.1v1.2h-8.7v-1.2l1.8,0.1c0.4,0,0.6-0.3,0.6-0.9V48.2
			c0-0.5-0.2-0.8-0.5-0.9l-1.8-0.1v-1.1h6.4V63.9z"/>
		<path class="st0" d="M304.6,45.4c-0.7,0.3-1.2,0.8-1.6,1.3c2.3,1.2,3.5,3.2,3.5,6.1c0,2.1-0.7,3.8-2.2,5c-1.5,1.3-3.5,2-5.9,2
			c-1.3,0-2.5-0.2-3.7-0.7c0,0-1.2,0.4-1.6,1.4c-0.4,1.1,0.9,1.8,2.6,1.8h6.2c2.3,0,4.1,0.5,5.3,1.5c1.2,1,1.8,2.7,1.8,5
			c0,1.6-0.4,3-1.4,4.2c-0.9,1.2-2.2,2.2-3.9,2.8c-1.7,0.7-3.7,1-5.9,1c-2.7,0-4.9-0.5-6.4-1.6c-1.5-1.1-2.2-2.6-2.2-4.7
			c0-1.3,0.3-2.3,1-3.2c0.7-0.9,1.8-1.6,3.2-2.3c-2.3-0.4-3.5-1.5-3.5-3.1c0-0.6,0.4-1.3,0.7-1.8c0.6-0.9,2.9-1.8,2.9-1.8
			c-0.9-0.6-1.7-1.4-2.2-2.4c-0.5-0.9-0.8-2.1-0.8-3.3c0-2.1,0.8-3.8,2.2-5.1c1.5-1.3,3.4-2,5.8-2c1.3,0,2.5,0.2,3.6,0.5
			c0.8-1.1,1.8-2,2.9-2.8c1.1-0.8,2-1.3,2.7-1.3c0.8,0,1.4,0.2,1.7,0.7c0.3,0.4,0.5,0.9,0.5,1.4c0,0.4-0.2,0.8-0.4,1.2
			c-0.3,0.4-0.7,0.5-1.1,0.5c-0.4,0-0.7-0.1-0.9-0.2c-0.2-0.1-0.4-0.3-0.6-0.5c-0.2-0.3-0.4-0.4-0.7-0.4
			C305.8,44.9,305.3,45,304.6,45.4z M296.6,65.3c-0.9,0-1.8,0.3-2.5,0.8c-0.8,0.5-1.4,1.2-1.9,2c-0.4,0.8-0.7,1.6-0.7,2.5
			c0,1.5,0.5,2.8,1.6,3.7c1,0.9,2.6,1.4,4.7,1.4c2.6,0,4.6-0.6,6-1.8c1.4-1.2,2.1-2.7,2.1-4.7c0-1.3-0.4-2.2-1.1-2.8
			c-0.7-0.6-1.9-0.9-3.5-0.9L296.6,65.3L296.6,65.3z M301.4,57.4c0.5-0.9,0.8-2.4,0.8-4.6c0-2.1-0.3-3.6-0.8-4.5
			c-0.5-0.9-1.6-1.3-3-1.3c-1.4,0-2.5,0.4-3,1.3c-0.5,0.8-0.8,2.4-0.8,4.5c0,1.5,0.1,2.7,0.3,3.6c0.2,0.9,0.6,1.5,1.1,1.8
			c0.5,0.4,1.3,0.5,2.4,0.5C299.8,58.7,300.9,58.2,301.4,57.4z"/>
		<path class="st0" d="M326.4,48.1c1.5,1.6,2.3,3.8,2.4,6.5v1.4h-13.6c0,2.8,0.5,5,1.5,6.6c1,1.5,2.5,2.3,4.4,2.4
			c1.6,0,2.9-0.4,4-1.2c1.1-0.8,1.9-1.8,2.4-2.9l1.1,0.8c-0.6,1.5-1.7,2.7-3.2,3.6c-1.5,0.9-3.1,1.3-4.9,1.3
			c-6.4,0-9.6-3.5-9.6-10.3c0-3.5,0.8-6,2.4-7.8c1.6-1.8,3.9-2.6,7.1-2.6C322.9,45.7,324.9,46.5,326.4,48.1z M316.5,49.2
			c-0.8,1.4-1.3,3.3-1.3,5.6h8.6c0.3,0,0.5-0.1,0.7-0.3c0.2-0.2,0.2-0.6,0.2-1.2c0-2.1-0.3-3.7-1-4.7c-0.7-1-1.8-1.5-3.4-1.5
			C318.6,47,317.3,47.7,316.5,49.2z"/>
		<path class="st0" d="M263.8,39.3v-0.4c-1.6,0-3-1.3-3-3h-0.4c0,1.6-1.3,3-3,3v0.4c1.6,0,3,1.3,3,3h0.4
			C260.9,40.7,262.2,39.3,263.8,39.3z"/>
		<path class="st0" d="M62,44.9c0-11.6-9.5-21.1-21.1-21.1c-2,0-4,0.3-5.9,0.8c-1.4,0.4-2.8,1-4.1,1.6c-3-1.6-6.4-2.5-9.9-2.5
			C9.5,23.8,0,33.3,0,44.9c0,0.1,0,0.1,0,0.1c0,1,0.1,2,0.3,3C2.8,67.6,28.8,79,30,79.5l1,0.4l1-0.4C33.3,79,59.2,67.6,61.8,48
			C62,47,62,46,62,44.9z M5.3,44.9c0-10.6,7.1-19.3,15.8-19.3c2.7,0,5.2,0.8,7.5,2.3c0.9,0.6,1.7,1.3,2.5,2c3.6,3.6,5.9,8.9,5.9,15
			c0,4.6-1.3,8.9-3.6,12.2c0.9,0.9,1.9,1.8,3,2.4c3.6-3.8,5.9-8.9,5.9-14.6c0-7-3.5-13.2-8.7-17c1.1-0.7,2.3-1.3,3.6-1.7
			c1.3-0.4,2.5-0.6,3.9-0.6c8.7,0,15.8,8.7,15.8,19.3c0,1-0.1,1.9-0.2,2.8C55.4,57,48.9,64.2,41,64.2c-2.7,0-5.2-0.8-7.5-2.3
			c-0.9-0.6-1.7-1.3-2.5-2c-3.6-3.6-5.9-8.9-5.9-15c0-4.7,1.3-8.9,3.6-12.2c-0.9-0.9-1.9-1.8-3-2.4c-3.6,3.8-5.9,8.9-5.9,14.6
			c0,7,3.5,13.2,8.7,17c-1.1,0.7-2.3,1.3-3.6,1.7c-1.3,0.4-2.5,0.6-3.9,0.6c-8,0-14.5-7.2-15.7-16.5C5.4,46.8,5.3,45.9,5.3,44.9
			C5.3,44.9,5.3,44.9,5.3,44.9z M31,76.8c-2.8-1.4-11-5.4-17.3-12.2C16,65.5,18.5,66,21,66c2,0,4-0.3,5.9-0.8c1.4-0.4,2.8-1,4.1-1.6
			c3,1.6,6.4,2.5,9.9,2.5c2.6,0,5-0.5,7.3-1.4C42,71.5,33.9,75.5,31,76.8z"/>
		<path class="st0" d="M31,10.3l-4.3,3l1.5-5L24,5.1L29.3,5L31,0l1.8,5L38,5.1l-4.2,3.2l1.5,5L31,10.3z"/>
		<path class="st0" d="M11.8,15.4l-4.3,3l1.5-5l-4.2-3.2l5.3-0.1l1.8-5l1.7,5l5.3,0.1l-4.2,3.2l1.5,5L11.8,15.4z"/>
		<path class="st0" d="M50.3,15.4l-4.3,3l1.5-5l-4.2-3.2l5.3-0.1l1.8-5l1.7,5l5.3,0.1l-4.2,3.2l1.5,5L50.3,15.4z"/>
	</g>
</g>
</svg>
