<?xml version="1.0" encoding="utf-8"?>
<!-- Generator: Adobe Illustrator 23.0.2, SVG Export Plug-In . SVG Version: 6.00 Build 0)  -->
<svg version="1.1" id="Layer_1" xmlns="http://www.w3.org/2000/svg" xmlns:xlink="http://www.w3.org/1999/xlink" x="0px" y="0px"
	 viewBox="0 0 92 81" style="enable-background:new 0 0 92 81;" xml:space="preserve">
<style type="text/css">
	.st0{fill:#1A1846;}
</style>
<g id="Profile-square">
	<path class="st0" d="M84,2.5H8c-3,0-5.4,2.4-5.4,5.4v65.1c0,3,2.4,5.4,5.4,5.4h76c3,0,5.4-2.4,5.4-5.4V7.9C89.4,4.9,87,2.5,84,2.5z
		 M86.7,73.1c0,1.5-1.2,2.7-2.7,2.7H8c-1.5,0-2.7-1.2-2.7-2.7V7.9c0-1.5,1.2-2.7,2.7-2.7h76c1.5,0,2.7,1.2,2.7,2.7V73.1z"/>
	<path class="st0" d="M46,40.5c6,0,10.9-5.5,10.9-12.2c0-6.7-4.9-12.2-10.9-12.2s-10.9,5.5-10.9,12.2C35.1,35,40,40.5,46,40.5z
		 M46,18.8c4.5,0,8.1,4.3,8.1,9.5s-3.7,9.5-8.1,9.5s-8.1-4.3-8.1-9.5S41.5,18.8,46,18.8z"/>
	<path class="st0" d="M46,41.9c-12,0-21.7,10-21.7,22.4c0,1.6,0.2,3.2,0.5,4.8h42.4c0.3-1.5,0.5-3.1,0.5-4.8
		C67.7,51.9,58,41.9,46,41.9z M64.9,66.3H27.1c-0.1-0.7-0.1-1.4-0.1-2c0-10.8,8.5-19.7,19-19.7c10.5,0,19,8.8,19,19.7
		C65,64.9,65,65.6,64.9,66.3z"/>
</g>
</svg>
