<?xml version="1.0" encoding="utf-8"?>
<!-- Generator: Adobe Illustrator 23.0.2, SVG Export Plug-In . SVG Version: 6.00 Build 0)  -->
<svg version="1.1" id="Capa_1" xmlns="http://www.w3.org/2000/svg" xmlns:xlink="http://www.w3.org/1999/xlink" x="0px" y="0px"
	 viewBox="0 0 512 512" style="enable-background:new 0 0 512 512;" xml:space="preserve">
<style type="text/css">
	.st0{fill:#828282;}
</style>
<path class="st0" d="M507.2,205.8C488,105.2,406.8,24,306.2,4.8C126.1-29.6-29.6,126.1,4.8,306.2c19.2,100.6,100.4,181.8,201,201
	C385.9,541.6,541.6,385.9,507.2,205.8z M374.6,374.6c-6.3,6.3-14.4,9.4-22.6,9.4s-16.4-3.1-22.6-9.4l-96-96c-6-6-9.4-14.1-9.4-22.6
	V128c0-17.7,14.3-32,32-32s32,14.3,32,32v114.8l86.6,86.6C387.1,341.9,387.1,362.1,374.6,374.6z"/>
</svg>
